HIERARCHY
ROOT Hips
{
	OFFSET 56.285702 -12.288815 93.684097
	CHANNELS 6 Xposition Yposition Zposition Xrotation Yrotation Zrotation
	JOINT spine
	{
		OFFSET 0.000000 -0.429886 7.475601
		CHANNELS 3 Xrotation Yrotation Zrotation
		JOINT spine1
		{
			OFFSET 0.000000 -0.000002 9.923012
			CHANNELS 3 Xrotation Yrotation Zrotation
			JOINT spine2
			{
				OFFSET 0.000000 -0.000002 9.508041
				CHANNELS 3 Xrotation Yrotation Zrotation
				JOINT Neck
				{
					OFFSET 0.000000 -1.163844 24.411095
					CHANNELS 3 Xrotation Yrotation Zrotation
					JOINT Head
					{
						OFFSET 0.000000 -0.000001 7.375229
						CHANNELS 3 Xrotation Yrotation Zrotation
						End Site
						{
							OFFSET 0.000000 5.887407 17.852203
						}
					}
				}
				JOINT RightShoulder
				{
					OFFSET -4.003559 0.557467 10.267906
					CHANNELS 3 Xrotation Yrotation Zrotation
					JOINT RightArm
					{
						OFFSET 0.000000 -0.000003 13.467300
						CHANNELS 3 Xrotation Yrotation Zrotation
						JOINT RightArmRoll
						{
							OFFSET 0.000000 -0.000001 6.798584
							CHANNELS 3 Xrotation Yrotation Zrotation
							JOINT RightForeArm
							{
								OFFSET 0.000000 -0.000003 19.801804
								CHANNELS 3 Xrotation Yrotation Zrotation
								JOINT RightForeArmRoll
								{
									OFFSET 0.000000 -0.000002 7.629044
									CHANNELS 3 Xrotation Yrotation Zrotation
									JOINT RightHand
									{
										OFFSET 0.000000 -0.000002 15.309799
										CHANNELS 3 Xrotation Yrotation Zrotation
										End Site
										{
											OFFSET 0.000000 0.000000 0.100006
										}
									}
								}
							}
						}
					}
				}
				JOINT LeftShoulder
				{
					OFFSET 4.003559 0.557467 10.267906
					CHANNELS 3 Xrotation Yrotation Zrotation
					JOINT LeftArm
					{
						OFFSET 0.000000 -0.000003 13.467300
						CHANNELS 3 Xrotation Yrotation Zrotation
						JOINT LeftArmRoll
						{
							OFFSET 0.000000 -0.000001 6.798584
							CHANNELS 3 Xrotation Yrotation Zrotation
							JOINT LeftForeArm
							{
								OFFSET 0.000000 -0.000003 19.801804
								CHANNELS 3 Xrotation Yrotation Zrotation
								JOINT LeftForeArmRoll
								{
									OFFSET 0.000000 -0.000002 7.629044
									CHANNELS 3 Xrotation Yrotation Zrotation
									JOINT LeftHand
									{
										OFFSET 0.000000 -0.000002 15.309799
										CHANNELS 3 Xrotation Yrotation Zrotation
										End Site
										{
											OFFSET 0.000000 0.000000 0.100006
										}
									}
								}
							}
						}
					}
				}
			}
		}
	}
	JOINT RightUpLeg
	{
		OFFSET -6.626091 1.019270 -1.215050
		CHANNELS 3 Xrotation Yrotation Zrotation
		JOINT RightUpLegRoll
		{
			OFFSET 0.000000 -0.000003 17.951698
			CHANNELS 3 Xrotation Yrotation Zrotation
			JOINT RightLeg
			{
				OFFSET 0.000000 0.000004 -22.230400
				CHANNELS 3 Xrotation Yrotation Zrotation
				JOINT RightLegRoll
				{
					OFFSET 0.000000 -0.000004 22.303200
					CHANNELS 3 Xrotation Yrotation Zrotation
					JOINT RightFoot
					{
						OFFSET 0.000000 -0.000003 18.563599
						CHANNELS 3 Xrotation Yrotation Zrotation
						JOINT RightToeBase
						{
							OFFSET 0.000000 -0.000003 15.518295
							CHANNELS 3 Xrotation Yrotation Zrotation
							End Site
							{
								OFFSET 0.006577 0.866262 7.515381
							}
						}
					}
				}
			}
		}
	}
	JOINT LeftUpLeg
	{
		OFFSET 6.626091 1.019270 -1.215050
		CHANNELS 3 Xrotation Yrotation Zrotation
		JOINT LeftUpLegRoll
		{
			OFFSET 0.000000 -0.000003 17.951797
			CHANNELS 3 Xrotation Yrotation Zrotation
			JOINT LeftLeg
			{
				OFFSET 0.000000 -0.000004 22.230309
				CHANNELS 3 Xrotation Yrotation Zrotation
				JOINT LeftLegRoll
				{
					OFFSET 0.000000 -0.000004 22.509308
					CHANNELS 3 Xrotation Yrotation Zrotation
					JOINT LeftFoot
					{
						OFFSET 0.000000 -0.000003 18.357498
						CHANNELS 3 Xrotation Yrotation Zrotation
						JOINT LeftToeBase
						{
							OFFSET 0.000000 -0.000002 15.518295
							CHANNELS 3 Xrotation Yrotation Zrotation
							End Site
							{
								OFFSET -0.029476 0.866261 7.515396
							}
						}
					}
				}
			}
		}
	}
}
MOTION
Frames: 7
Frame Time: 0.041667
56.208599 -11.735315 93.614098 -4.681405 1.023256 -1.637052 -1.870595 -0.102159 0.175997 0.261983 -0.215078 0.350685 1.907053 -0.210861 0.353235 16.032233 5.673556 -2.028416 2.546245 -7.381606 -1.219314 -4.723920 -71.830122 -6.719643 -64.048494 -127.449486 -85.516099 -0.000000 0.000035 -0.000009 84.413591 0.770298 -4.330909 0.000001 -0.000006 -3.010608 -5.000207 -7.999408 0.000071 -8.460327 70.516615 10.746830 -64.025982 127.134846 65.131625 0.000004 0.000010 -0.000001 66.676020 4.018141 0.352955 0.000002 -0.000008 3.004971 -5.000223 7.998970 -0.000119 1.805828 179.434288 -1.497196 -179.999991 0.000005 -1.050997 173.746912 -1.271395 -0.452304 -0.000003 -0.000003 0.012582 67.846694 6.871849 2.245748 25.456861 -7.355621 -0.000003 0.567568 179.889014 3.529590 0.000011 -0.000004 -1.094620 -8.655197 1.964676 0.393584 -0.000001 -0.000002 -0.149439 70.624750 -6.837051 -2.172207 25.456962 7.355614 0.000000 
56.202000 -11.741014 93.612793 -4.684850 1.024038 -1.635996 -1.868833 -0.103141 0.175698 0.265504 -0.216408 0.350008 1.910573 -0.212199 0.352574 16.010221 5.694753 -2.027345 2.569151 -7.400325 -1.215883 -4.714959 -71.817499 -6.708700 -64.059040 -127.448734 -85.499495 -0.000004 0.000035 -0.000008 84.463014 0.776499 -4.343353 -0.000001 -0.000009 -3.010607 -5.000206 -7.999412 0.000074 -8.459999 70.505536 10.745730 -64.032907 127.173901 65.140689 0.000006 0.000010 -0.000000 66.661642 4.022789 0.348461 0.000001 -0.000008 3.004970 -5.000224 7.998969 -0.000118 1.805320 179.432293 -1.498463 -179.999991 0.000005 -1.050997 173.743224 -1.270395 -0.452277 -0.000003 -0.000003 0.012562 67.845867 6.871886 2.245705 25.456861 -7.355622 -0.000003 0.568658 179.887006 3.527398 0.000010 -0.000004 -1.094790 -8.657905 1.966135 0.393500 -0.000001 -0.000002 -0.149470 70.624340 -6.837078 -2.172236 25.456959 7.355615 0.000000 
56.200298 -11.737414 93.617409 -4.688361 1.024770 -1.634993 -1.867012 -0.104132 0.175422 0.269130 -0.217698 0.349352 1.914192 -0.213497 0.351934 15.987005 5.716126 -2.026160 2.593253 -7.419379 -1.212286 -4.705492 -71.804993 -6.697217 -64.069012 -127.449008 -85.490479 -0.000004 0.000033 -0.000009 84.510825 0.782560 -4.355309 -0.000001 -0.000009 -3.010606 -5.000208 -7.999409 0.000073 -8.461072 70.494191 10.746172 -64.035790 127.215374 65.152649 0.000003 0.000010 0.000000 66.648802 4.028168 0.344044 0.000001 -0.000008 3.004960 -5.000221 7.998972 -0.000119 1.804652 179.431282 -1.499669 -179.999991 0.000005 -1.050997 173.739331 -1.269381 -0.452253 -0.000003 -0.000003 0.012541 67.845027 6.871884 2.245857 25.456860 -7.355621 -0.000003 0.569842 179.885995 3.525276 0.000010 -0.000004 -1.094970 -8.660523 1.967545 0.393393 -0.000001 -0.000002 -0.149503 70.624006 -6.837042 -2.172252 25.456960 7.355615 0.000000 
56.199299 -11.738015 93.618401 -4.691921 1.025492 -1.634019 -1.865163 -0.105098 0.175161 0.272846 -0.218907 0.348708 1.917914 -0.214713 0.351304 15.962774 5.737144 -2.024843 2.618279 -7.438343 -1.208559 -4.695569 -71.793307 -6.685278 -64.078478 -127.450415 -85.488437 -0.000002 0.000034 -0.000009 84.556642 0.788494 -4.366715 -0.000002 -0.000007 -3.010599 -5.000207 -7.999412 0.000072 -8.463737 70.482464 10.748350 -64.036944 127.258322 65.171356 0.000002 0.000010 -0.000000 66.637614 4.034257 0.339894 0.000001 -0.000009 3.004951 -5.000223 7.998972 -0.000118 1.803851 179.429274 -1.500893 -179.999991 0.000005 -1.050997 173.735342 -1.268380 -0.453243 -0.000003 -0.000003 0.012521 67.844283 6.871895 2.245806 25.456863 -7.355620 -0.000003 0.571060 179.884001 3.523223 0.000011 -0.000004 -1.095140 -8.663053 1.968877 0.393267 -0.000001 -0.000002 -0.149538 70.623678 -6.837039 -2.172270 25.456959 7.355616 0.000000 
56.200600 -11.737816 93.601303 -4.695485 1.026235 -1.633034 -1.863271 -0.106013 0.174908 0.276625 -0.219994 0.348067 1.921684 -0.215808 0.350676 15.937818 5.757275 -2.023380 2.643985 -7.456773 -1.204731 -4.685164 -71.782734 -6.672921 -64.089823 -127.452054 -85.495520 -0.000003 0.000032 -0.000009 84.600034 0.794316 -4.377601 0.000001 -0.000007 -3.010596 -5.000205 -7.999411 0.000075 -8.468155 70.470456 10.752456 -64.035093 127.303087 65.196130 0.000002 0.000010 0.000000 66.628072 4.041142 0.336060 0.000001 -0.000008 3.004949 -5.000223 7.998971 -0.000118 1.802944 179.427280 -1.502117 -179.999991 0.000005 -1.050997 173.731271 -1.266388 -0.453115 -0.000003 -0.000003 0.012501 67.843566 6.871904 2.245852 25.456861 -7.355621 -0.000003 0.572259 179.882020 3.521272 0.000011 -0.000004 -1.095321 -8.665511 1.970100 0.393128 -0.000001 -0.000001 -0.149575 70.623473 -6.837035 -2.172381 25.456960 7.355616 0.000000 
56.203201 -11.728614 93.604599 -4.699016 1.027047 -1.632004 -1.861363 -0.106845 0.174654 0.280452 -0.220917 0.347418 1.925514 -0.216740 0.350037 15.912211 5.775992 -2.021742 2.670111 -7.474228 -1.200835 -4.674269 -71.773868 -6.660177 -64.099317 -127.455073 -85.506448 -0.000001 0.000033 -0.000010 84.640701 0.800011 -4.387916 0.000001 -0.000006 -3.010601 -5.000204 -7.999411 0.000074 -8.474471 70.457950 10.758633 -64.030182 127.349587 65.227815 0.000003 0.000010 0.000000 66.620374 4.048749 0.332829 0.000000 -0.000008 3.004941 -5.000224 7.998970 -0.000120 1.801952 179.426283 -1.503299 -179.999991 0.000005 -1.050997 173.727241 -1.265387 -0.453096 -0.000003 -0.000003 0.012481 67.842828 6.871912 2.245900 25.456861 -7.355620 -0.000002 0.573375 179.880996 3.519439 0.000011 -0.000004 -1.095490 -8.667899 1.971174 0.392977 -0.000001 -0.000001 -0.149614 70.623459 -6.837003 -2.172477 25.456957 7.355616 0.000000 
56.200401 -11.729413 93.617599 -4.702475 1.027958 -1.630896 -1.859431 -0.107564 0.174389 0.284304 -0.221638 0.346752 1.929364 -0.217468 0.349380 15.886151 5.792754 -2.019909 2.696416 -7.490271 -1.196906 -4.662988 -71.767427 -6.647203 -64.111605 -127.457655 -85.526386 -0.000003 0.000033 -0.000009 84.678247 0.805590 -4.397670 0.000000 -0.000010 -3.010598 -5.000207 -7.999410 0.000072 -8.482806 70.444952 10.767043 -64.022129 127.397740 65.267252 0.000002 0.000010 0.000000 66.614534 4.057157 0.330237 0.000001 -0.000008 3.004940 -5.000222 7.998971 -0.000118 1.800904 179.424288 -1.504531 -179.999991 0.000005 -1.050997 173.723280 -1.264372 -0.453073 -0.000003 -0.000003 0.012462 67.842097 6.871920 2.245948 25.456861 -7.355621 -0.000003 0.574357 179.879001 3.517738 0.000010 -0.000004 -1.095661 -8.670205 1.972062 0.392817 -0.000001 -0.000002 -0.149656 70.623767 -6.836975 -2.172455 25.456957 7.355615 0.000000 
